<mxfile host="app.diagrams.net" modified="2024-02-13T16:29:45.669Z" agent="Mozilla/5.0 (Windows NT 10.0; Win64; x64) AppleWebKit/537.36 (KHTML, like Gecko) Chrome/121.0.0.0 Safari/537.36" etag="hrOJ9_oEyjWdzWKBv_tK" version="23.1.4" type="device">
  <diagram name="Page-1" id="K_cZU-HZNloCBM6NG3jr">
    <mxGraphModel dx="2875" dy="2394" grid="1" gridSize="10" guides="1" tooltips="1" connect="1" arrows="1" fold="1" page="1" pageScale="1" pageWidth="827" pageHeight="1169" math="0" shadow="0">
      <root>
        <mxCell id="0" />
        <mxCell id="1" parent="0" />
        <mxCell id="wezXU6hIy33aXfsYBitu-1" value="Organisation" style="shape=umlActor;verticalLabelPosition=bottom;verticalAlign=top;html=1;outlineConnect=0;" parent="1" vertex="1">
          <mxGeometry x="40" y="499.99999999999994" width="30" height="60" as="geometry" />
        </mxCell>
        <mxCell id="wezXU6hIy33aXfsYBitu-4" value="&lt;font style=&quot;font-size: 36px;&quot;&gt;World Database Use Case Diagram&lt;/font&gt;" style="text;html=1;align=center;verticalAlign=middle;resizable=0;points=[];autosize=1;strokeColor=none;fillColor=none;" parent="1" vertex="1">
          <mxGeometry x="120" y="-190" width="600" height="60" as="geometry" />
        </mxCell>
        <mxCell id="c6CjNz6LggcTDiheWTpO-10" value="" style="group" vertex="1" connectable="0" parent="1">
          <mxGeometry x="220" y="-110" width="330" height="1270" as="geometry" />
        </mxCell>
        <mxCell id="wezXU6hIy33aXfsYBitu-5" value="" style="ellipse;whiteSpace=wrap;html=1;" parent="c6CjNz6LggcTDiheWTpO-10" vertex="1">
          <mxGeometry x="77.6470588235294" y="357.1875" width="116.47058823529412" height="79.375" as="geometry" />
        </mxCell>
        <mxCell id="wezXU6hIy33aXfsYBitu-7" value="" style="rounded=0;whiteSpace=wrap;html=1;" parent="c6CjNz6LggcTDiheWTpO-10" vertex="1">
          <mxGeometry width="330" height="1270" as="geometry" />
        </mxCell>
        <mxCell id="wezXU6hIy33aXfsYBitu-23" value="&#xa;&lt;b style=&quot;border-color: var(--border-color); color: rgb(0, 0, 0); font-family: Helvetica; font-size: 12px; font-style: normal; font-variant-ligatures: normal; font-variant-caps: normal; letter-spacing: normal; orphans: 2; text-align: center; text-indent: 0px; text-transform: none; widows: 2; word-spacing: 0px; -webkit-text-stroke-width: 0px; background-color: rgb(251, 251, 251); text-decoration-thickness: initial; text-decoration-style: initial; text-decoration-color: initial;&quot;&gt;Produce a report with all the countries in the world, continent and region, sorted by largest to smallest&lt;/b&gt;&#xa;&#xa;" style="ellipse;whiteSpace=wrap;html=1;" parent="c6CjNz6LggcTDiheWTpO-10" vertex="1">
          <mxGeometry x="19.41176470588235" y="9.921875" width="281.4705882352941" height="128.984375" as="geometry" />
        </mxCell>
        <mxCell id="wezXU6hIy33aXfsYBitu-24" value="&lt;b&gt;Produce a report on the number of people who speak Chinese, English, Hindi, Spanish or Arabic, from largest to smallest.&lt;/b&gt;" style="ellipse;whiteSpace=wrap;html=1;" parent="c6CjNz6LggcTDiheWTpO-10" vertex="1">
          <mxGeometry x="19.41176470588235" y="982.265625" width="281.4705882352941" height="128.984375" as="geometry" />
        </mxCell>
        <mxCell id="wezXU6hIy33aXfsYBitu-25" value="&lt;b&gt;Produce a report on the population of people living in or out of cities in each continent, region and country.&lt;/b&gt;" style="ellipse;whiteSpace=wrap;html=1;" parent="c6CjNz6LggcTDiheWTpO-10" vertex="1">
          <mxGeometry x="9.705882352941176" y="843.359375" width="281.4705882352941" height="128.984375" as="geometry" />
        </mxCell>
        <mxCell id="wezXU6hIy33aXfsYBitu-26" value="&lt;b&gt;Produce a report on N capital cities in the world, continent, region, country and district where N is provided.&lt;/b&gt;" style="ellipse;whiteSpace=wrap;html=1;" parent="c6CjNz6LggcTDiheWTpO-10" vertex="1">
          <mxGeometry x="9.705882352941176" y="704.453125" width="281.4705882352941" height="128.984375" as="geometry" />
        </mxCell>
        <mxCell id="wezXU6hIy33aXfsYBitu-27" value="&lt;b&gt;Produce a report on all capital cities in the world, continent, region, country and district organised by largest to smallest population.&lt;/b&gt;" style="ellipse;whiteSpace=wrap;html=1;" parent="c6CjNz6LggcTDiheWTpO-10" vertex="1">
          <mxGeometry x="19.41176470588235" y="565.546875" width="281.4705882352941" height="128.984375" as="geometry" />
        </mxCell>
        <mxCell id="wezXU6hIy33aXfsYBitu-29" value="&lt;b&gt;Produce a report with N cities in the world, continent region, country and city sorted by largest to smallest, where N is provided&lt;/b&gt;" style="ellipse;whiteSpace=wrap;html=1;" parent="c6CjNz6LggcTDiheWTpO-10" vertex="1">
          <mxGeometry x="19.41176470588235" y="426.640625" width="281.4705882352941" height="128.984375" as="geometry" />
        </mxCell>
        <mxCell id="wezXU6hIy33aXfsYBitu-30" value="&lt;b&gt;Produce a report with all the cities in the world, continent region, country and city sorted by largest to smallest&lt;/b&gt;" style="ellipse;whiteSpace=wrap;html=1;" parent="c6CjNz6LggcTDiheWTpO-10" vertex="1">
          <mxGeometry x="19.41176470588235" y="287.734375" width="281.4705882352941" height="128.984375" as="geometry" />
        </mxCell>
        <mxCell id="wezXU6hIy33aXfsYBitu-31" value="&lt;b&gt;Produce a report with N countries in the world, continent and region, sorted by largest to smallest, where N is provided&lt;/b&gt;" style="ellipse;whiteSpace=wrap;html=1;" parent="c6CjNz6LggcTDiheWTpO-10" vertex="1">
          <mxGeometry x="19.41176470588235" y="148.828125" width="281.4705882352941" height="128.984375" as="geometry" />
        </mxCell>
        <mxCell id="c6CjNz6LggcTDiheWTpO-1" value="&lt;b&gt;Produce a report on the population of the world, a continent, a region, a country, a district and a city.&lt;/b&gt;" style="ellipse;whiteSpace=wrap;html=1;" vertex="1" parent="c6CjNz6LggcTDiheWTpO-10">
          <mxGeometry x="19.41176470588235" y="1121.171875" width="281.4705882352941" height="128.984375" as="geometry" />
        </mxCell>
        <mxCell id="c6CjNz6LggcTDiheWTpO-11" value="" style="endArrow=none;html=1;rounded=0;entryX=0;entryY=0.5;entryDx=0;entryDy=0;exitX=1;exitY=0.3333333333333333;exitDx=0;exitDy=0;exitPerimeter=0;" edge="1" parent="1" source="wezXU6hIy33aXfsYBitu-1" target="wezXU6hIy33aXfsYBitu-23">
          <mxGeometry width="50" height="50" relative="1" as="geometry">
            <mxPoint x="100" y="240" as="sourcePoint" />
            <mxPoint x="150" y="190" as="targetPoint" />
          </mxGeometry>
        </mxCell>
        <mxCell id="c6CjNz6LggcTDiheWTpO-12" value="" style="endArrow=none;html=1;rounded=0;entryX=0;entryY=0.5;entryDx=0;entryDy=0;exitX=1;exitY=0.3333333333333333;exitDx=0;exitDy=0;exitPerimeter=0;" edge="1" parent="1" source="wezXU6hIy33aXfsYBitu-1" target="wezXU6hIy33aXfsYBitu-31">
          <mxGeometry width="50" height="50" relative="1" as="geometry">
            <mxPoint x="87" y="370" as="sourcePoint" />
            <mxPoint x="249" y="-26" as="targetPoint" />
          </mxGeometry>
        </mxCell>
        <mxCell id="c6CjNz6LggcTDiheWTpO-13" value="" style="endArrow=none;html=1;rounded=0;entryX=0;entryY=0.5;entryDx=0;entryDy=0;exitX=1;exitY=0.3333333333333333;exitDx=0;exitDy=0;exitPerimeter=0;" edge="1" parent="1" source="wezXU6hIy33aXfsYBitu-1" target="wezXU6hIy33aXfsYBitu-30">
          <mxGeometry width="50" height="50" relative="1" as="geometry">
            <mxPoint x="97" y="380" as="sourcePoint" />
            <mxPoint x="259" y="-16" as="targetPoint" />
          </mxGeometry>
        </mxCell>
        <mxCell id="c6CjNz6LggcTDiheWTpO-14" value="" style="endArrow=none;html=1;rounded=0;exitX=1;exitY=0.3333333333333333;exitDx=0;exitDy=0;exitPerimeter=0;entryX=0;entryY=0.5;entryDx=0;entryDy=0;" edge="1" parent="1" source="wezXU6hIy33aXfsYBitu-1" target="wezXU6hIy33aXfsYBitu-29">
          <mxGeometry width="50" height="50" relative="1" as="geometry">
            <mxPoint x="107" y="390" as="sourcePoint" />
            <mxPoint x="269" y="-6" as="targetPoint" />
          </mxGeometry>
        </mxCell>
        <mxCell id="c6CjNz6LggcTDiheWTpO-15" value="" style="endArrow=none;html=1;rounded=0;entryX=0;entryY=0.5;entryDx=0;entryDy=0;exitX=1;exitY=0.3333333333333333;exitDx=0;exitDy=0;exitPerimeter=0;" edge="1" parent="1" source="wezXU6hIy33aXfsYBitu-1" target="wezXU6hIy33aXfsYBitu-27">
          <mxGeometry width="50" height="50" relative="1" as="geometry">
            <mxPoint x="140" y="540" as="sourcePoint" />
            <mxPoint x="302" y="144" as="targetPoint" />
          </mxGeometry>
        </mxCell>
        <mxCell id="c6CjNz6LggcTDiheWTpO-16" value="" style="endArrow=none;html=1;rounded=0;entryX=0;entryY=0.5;entryDx=0;entryDy=0;exitX=1;exitY=0.3333333333333333;exitDx=0;exitDy=0;exitPerimeter=0;" edge="1" parent="1" source="wezXU6hIy33aXfsYBitu-1" target="wezXU6hIy33aXfsYBitu-26">
          <mxGeometry width="50" height="50" relative="1" as="geometry">
            <mxPoint x="140" y="540" as="sourcePoint" />
            <mxPoint x="302" y="144" as="targetPoint" />
          </mxGeometry>
        </mxCell>
        <mxCell id="c6CjNz6LggcTDiheWTpO-17" value="" style="endArrow=none;html=1;rounded=0;entryX=0;entryY=0.5;entryDx=0;entryDy=0;exitX=1;exitY=0.3333333333333333;exitDx=0;exitDy=0;exitPerimeter=0;" edge="1" parent="1" source="wezXU6hIy33aXfsYBitu-1" target="wezXU6hIy33aXfsYBitu-25">
          <mxGeometry width="50" height="50" relative="1" as="geometry">
            <mxPoint x="80" y="380" as="sourcePoint" />
            <mxPoint x="299" y="24" as="targetPoint" />
          </mxGeometry>
        </mxCell>
        <mxCell id="c6CjNz6LggcTDiheWTpO-20" value="" style="endArrow=none;html=1;rounded=0;entryX=0;entryY=0.5;entryDx=0;entryDy=0;" edge="1" parent="1" target="wezXU6hIy33aXfsYBitu-24">
          <mxGeometry width="50" height="50" relative="1" as="geometry">
            <mxPoint x="70" y="520" as="sourcePoint" />
            <mxPoint x="240" y="808" as="targetPoint" />
          </mxGeometry>
        </mxCell>
        <mxCell id="c6CjNz6LggcTDiheWTpO-21" value="" style="endArrow=none;html=1;rounded=0;entryX=0;entryY=0.5;entryDx=0;entryDy=0;exitX=1;exitY=0.3333333333333333;exitDx=0;exitDy=0;exitPerimeter=0;" edge="1" parent="1" source="wezXU6hIy33aXfsYBitu-1" target="c6CjNz6LggcTDiheWTpO-1">
          <mxGeometry width="50" height="50" relative="1" as="geometry">
            <mxPoint x="90" y="540" as="sourcePoint" />
            <mxPoint x="250" y="818" as="targetPoint" />
          </mxGeometry>
        </mxCell>
        <mxCell id="c6CjNz6LggcTDiheWTpO-22" value="View report" style="rounded=0;whiteSpace=wrap;html=1;" vertex="1" parent="1">
          <mxGeometry x="700" y="490" width="120" height="60" as="geometry" />
        </mxCell>
        <mxCell id="c6CjNz6LggcTDiheWTpO-25" value="" style="endArrow=openThin;dashed=1;html=1;dashPattern=1 3;strokeWidth=2;rounded=0;exitX=1;exitY=0.5;exitDx=0;exitDy=0;entryX=0;entryY=0.5;entryDx=0;entryDy=0;" edge="1" parent="1" source="wezXU6hIy33aXfsYBitu-31" target="c6CjNz6LggcTDiheWTpO-22">
          <mxGeometry width="50" height="50" relative="1" as="geometry">
            <mxPoint x="660" y="220" as="sourcePoint" />
            <mxPoint x="610" y="103" as="targetPoint" />
          </mxGeometry>
        </mxCell>
        <mxCell id="c6CjNz6LggcTDiheWTpO-36" value="&amp;lt;&amp;lt;Includes&amp;gt;&amp;gt;" style="edgeLabel;html=1;align=center;verticalAlign=middle;resizable=0;points=[];" vertex="1" connectable="0" parent="c6CjNz6LggcTDiheWTpO-25">
          <mxGeometry x="-0.4875" relative="1" as="geometry">
            <mxPoint as="offset" />
          </mxGeometry>
        </mxCell>
        <mxCell id="c6CjNz6LggcTDiheWTpO-27" value="" style="endArrow=openThin;dashed=1;html=1;dashPattern=1 3;strokeWidth=2;rounded=0;exitX=1;exitY=0.5;exitDx=0;exitDy=0;entryX=0;entryY=0.5;entryDx=0;entryDy=0;" edge="1" parent="1" source="wezXU6hIy33aXfsYBitu-30" target="c6CjNz6LggcTDiheWTpO-22">
          <mxGeometry width="50" height="50" relative="1" as="geometry">
            <mxPoint x="690" y="180" as="sourcePoint" />
            <mxPoint x="869" y="597" as="targetPoint" />
          </mxGeometry>
        </mxCell>
        <mxCell id="c6CjNz6LggcTDiheWTpO-37" value="&amp;lt;&amp;lt;Includes&amp;gt;&amp;gt;" style="edgeLabel;html=1;align=center;verticalAlign=middle;resizable=0;points=[];" vertex="1" connectable="0" parent="c6CjNz6LggcTDiheWTpO-27">
          <mxGeometry x="-0.3993" y="-3" relative="1" as="geometry">
            <mxPoint as="offset" />
          </mxGeometry>
        </mxCell>
        <mxCell id="c6CjNz6LggcTDiheWTpO-28" value="" style="endArrow=openThin;dashed=1;html=1;dashPattern=1 3;strokeWidth=2;rounded=0;exitX=1;exitY=0.5;exitDx=0;exitDy=0;" edge="1" parent="1" source="wezXU6hIy33aXfsYBitu-29">
          <mxGeometry width="50" height="50" relative="1" as="geometry">
            <mxPoint x="710" y="260" as="sourcePoint" />
            <mxPoint x="700" y="520" as="targetPoint" />
          </mxGeometry>
        </mxCell>
        <mxCell id="c6CjNz6LggcTDiheWTpO-38" value="&amp;lt;&amp;lt;Includes&amp;gt;&amp;gt;" style="edgeLabel;html=1;align=center;verticalAlign=middle;resizable=0;points=[];" vertex="1" connectable="0" parent="c6CjNz6LggcTDiheWTpO-28">
          <mxGeometry x="-0.424" relative="1" as="geometry">
            <mxPoint as="offset" />
          </mxGeometry>
        </mxCell>
        <mxCell id="c6CjNz6LggcTDiheWTpO-29" value="" style="endArrow=openThin;dashed=1;html=1;dashPattern=1 3;strokeWidth=2;rounded=0;exitX=1;exitY=0.5;exitDx=0;exitDy=0;entryX=0;entryY=0.5;entryDx=0;entryDy=0;" edge="1" parent="1" source="wezXU6hIy33aXfsYBitu-27" target="c6CjNz6LggcTDiheWTpO-22">
          <mxGeometry width="50" height="50" relative="1" as="geometry">
            <mxPoint x="680" y="630" as="sourcePoint" />
            <mxPoint x="859" y="1047" as="targetPoint" />
          </mxGeometry>
        </mxCell>
        <mxCell id="c6CjNz6LggcTDiheWTpO-39" value="&amp;lt;&amp;lt;Includes&amp;gt;&amp;gt;" style="edgeLabel;html=1;align=center;verticalAlign=middle;resizable=0;points=[];" vertex="1" connectable="0" parent="c6CjNz6LggcTDiheWTpO-29">
          <mxGeometry x="-0.2013" y="-1" relative="1" as="geometry">
            <mxPoint as="offset" />
          </mxGeometry>
        </mxCell>
        <mxCell id="c6CjNz6LggcTDiheWTpO-30" value="" style="endArrow=openThin;dashed=1;html=1;dashPattern=1 3;strokeWidth=2;rounded=0;exitX=1;exitY=0.5;exitDx=0;exitDy=0;" edge="1" parent="1" source="wezXU6hIy33aXfsYBitu-23">
          <mxGeometry width="50" height="50" relative="1" as="geometry">
            <mxPoint x="561" y="143" as="sourcePoint" />
            <mxPoint x="700" y="520" as="targetPoint" />
          </mxGeometry>
        </mxCell>
        <mxCell id="c6CjNz6LggcTDiheWTpO-35" value="&amp;lt;&amp;lt;Includes&amp;gt;&amp;gt;" style="edgeLabel;html=1;align=center;verticalAlign=middle;resizable=0;points=[];" vertex="1" connectable="0" parent="c6CjNz6LggcTDiheWTpO-30">
          <mxGeometry x="-0.4782" relative="1" as="geometry">
            <mxPoint as="offset" />
          </mxGeometry>
        </mxCell>
        <mxCell id="c6CjNz6LggcTDiheWTpO-31" value="" style="endArrow=openThin;dashed=1;html=1;dashPattern=1 3;strokeWidth=2;rounded=0;exitX=1;exitY=0.5;exitDx=0;exitDy=0;" edge="1" parent="1" source="wezXU6hIy33aXfsYBitu-26">
          <mxGeometry width="50" height="50" relative="1" as="geometry">
            <mxPoint x="680" y="630" as="sourcePoint" />
            <mxPoint x="700" y="520" as="targetPoint" />
          </mxGeometry>
        </mxCell>
        <mxCell id="c6CjNz6LggcTDiheWTpO-40" value="&amp;lt;&amp;lt;Includes&amp;gt;&amp;gt;" style="edgeLabel;html=1;align=center;verticalAlign=middle;resizable=0;points=[];" vertex="1" connectable="0" parent="c6CjNz6LggcTDiheWTpO-31">
          <mxGeometry x="-0.126" y="2" relative="1" as="geometry">
            <mxPoint as="offset" />
          </mxGeometry>
        </mxCell>
        <mxCell id="c6CjNz6LggcTDiheWTpO-32" value="" style="endArrow=openThin;dashed=1;html=1;dashPattern=1 3;strokeWidth=2;rounded=0;exitX=1;exitY=0.5;exitDx=0;exitDy=0;" edge="1" parent="1" source="wezXU6hIy33aXfsYBitu-25">
          <mxGeometry width="50" height="50" relative="1" as="geometry">
            <mxPoint x="680" y="650" as="sourcePoint" />
            <mxPoint x="700" y="520" as="targetPoint" />
          </mxGeometry>
        </mxCell>
        <mxCell id="c6CjNz6LggcTDiheWTpO-41" value="&amp;lt;&amp;lt;Includes&amp;gt;&amp;gt;" style="edgeLabel;html=1;align=center;verticalAlign=middle;resizable=0;points=[];" vertex="1" connectable="0" parent="c6CjNz6LggcTDiheWTpO-32">
          <mxGeometry x="-0.0168" y="1" relative="1" as="geometry">
            <mxPoint as="offset" />
          </mxGeometry>
        </mxCell>
        <mxCell id="c6CjNz6LggcTDiheWTpO-33" value="" style="endArrow=openThin;dashed=1;html=1;dashPattern=1 3;strokeWidth=2;rounded=0;exitX=1;exitY=0.5;exitDx=0;exitDy=0;" edge="1" parent="1" source="wezXU6hIy33aXfsYBitu-24">
          <mxGeometry width="50" height="50" relative="1" as="geometry">
            <mxPoint x="680" y="830" as="sourcePoint" />
            <mxPoint x="700" y="520" as="targetPoint" />
          </mxGeometry>
        </mxCell>
        <mxCell id="c6CjNz6LggcTDiheWTpO-42" value="&amp;lt;&amp;lt;Includes&amp;gt;&amp;gt;" style="edgeLabel;html=1;align=center;verticalAlign=middle;resizable=0;points=[];" vertex="1" connectable="0" parent="c6CjNz6LggcTDiheWTpO-33">
          <mxGeometry x="0.1421" y="2" relative="1" as="geometry">
            <mxPoint as="offset" />
          </mxGeometry>
        </mxCell>
        <mxCell id="c6CjNz6LggcTDiheWTpO-34" value="" style="endArrow=openThin;dashed=1;html=1;dashPattern=1 3;strokeWidth=2;rounded=0;exitX=1.013;exitY=0.57;exitDx=0;exitDy=0;exitPerimeter=0;" edge="1" parent="1" source="c6CjNz6LggcTDiheWTpO-1">
          <mxGeometry width="50" height="50" relative="1" as="geometry">
            <mxPoint x="740" y="900" as="sourcePoint" />
            <mxPoint x="700" y="520" as="targetPoint" />
          </mxGeometry>
        </mxCell>
        <mxCell id="c6CjNz6LggcTDiheWTpO-43" value="&amp;lt;&amp;lt;Includes&amp;gt;&amp;gt;" style="edgeLabel;html=1;align=center;verticalAlign=middle;resizable=0;points=[];" vertex="1" connectable="0" parent="c6CjNz6LggcTDiheWTpO-34">
          <mxGeometry x="0.0297" y="-1" relative="1" as="geometry">
            <mxPoint as="offset" />
          </mxGeometry>
        </mxCell>
      </root>
    </mxGraphModel>
  </diagram>
</mxfile>
